<?xml version="1.0" standalone="no"?>
<!DOCTYPE svg PUBLIC "-//W3C//DTD SVG 20010904//EN"
 "http://www.w3.org/TR/2001/REC-SVG-20010904/DTD/svg10.dtd">
<svg version="1.0" xmlns="http://www.w3.org/2000/svg"
 width="1280.000000pt" height="1280.000000pt" viewBox="0 0 1280.000000 1280.000000"
 preserveAspectRatio="xMidYMid meet">
<metadata>
Created by potrace 1.15, written by Peter Selinger 2001-2017
</metadata>
<g transform="translate(0.000000,1280.000000) scale(0.100000,-0.100000)"
fill="#673ab7" stroke="none">
<path d="M4425 12599 c-114 -101 -35 -372 123 -420 112 -33 192 103 148 253
-47 162 -181 245 -271 167z"/>
<path d="M4814 12495 c-55 -38 -71 -166 -34 -271 38 -109 127 -194 203 -194
52 0 73 13 98 62 58 114 -22 342 -142 404 -36 18 -99 18 -125 -1z"/>
<path d="M4105 12421 c-41 -18 -68 -59 -73 -110 -12 -131 132 -281 271 -281
40 0 53 5 85 34 35 32 37 38 37 93 -1 98 -73 201 -174 249 -42 20 -117 28
-146 15z"/>
<path d="M4509 12098 c-64 -37 -77 -74 -71 -211 3 -79 -1 -163 -13 -258 l-17
-139 24 -47 c31 -63 84 -104 142 -110 65 -8 88 1 153 58 84 74 139 107 218
130 142 41 178 68 205 153 15 45 8 122 -14 164 -39 76 -143 137 -404 238 -126
49 -170 53 -223 22z"/>
<path d="M4021 12027 c-69 -35 -86 -129 -41 -221 48 -94 166 -176 255 -176 38
0 95 36 112 70 64 126 -99 339 -257 340 -25 0 -56 -6 -69 -13z"/>
<path d="M3425 10819 c-114 -101 -35 -372 123 -420 112 -33 192 103 148 253
-47 162 -181 245 -271 167z"/>
<path d="M3814 10715 c-55 -38 -71 -166 -34 -271 38 -109 127 -194 203 -194
52 0 73 13 98 62 58 114 -22 342 -142 404 -36 18 -99 18 -125 -1z"/>
<path d="M3105 10641 c-41 -18 -68 -59 -73 -110 -12 -131 132 -281 271 -281
40 0 53 5 85 34 35 32 37 38 37 93 -1 98 -73 201 -174 249 -42 20 -117 28
-146 15z"/>
<path d="M5905 10359 c-114 -101 -35 -372 123 -420 112 -33 192 103 148 253
-47 162 -181 245 -271 167z"/>
<path d="M3509 10318 c-64 -37 -77 -74 -71 -211 3 -79 -1 -163 -13 -258 l-17
-139 24 -47 c31 -63 84 -104 142 -110 65 -8 88 1 153 58 84 74 139 107 218
130 142 41 178 68 205 153 15 45 8 122 -14 164 -39 76 -143 137 -404 238 -126
49 -170 53 -223 22z"/>
<path d="M6294 10255 c-55 -38 -71 -166 -34 -271 38 -109 127 -194 203 -194
52 0 73 13 98 62 58 114 -22 342 -142 404 -36 18 -99 18 -125 -1z"/>
<path d="M3021 10247 c-69 -35 -86 -129 -41 -221 48 -94 166 -176 255 -176 38
0 95 36 112 70 64 126 -99 339 -257 340 -25 0 -56 -6 -69 -13z"/>
<path d="M5585 10181 c-41 -18 -68 -59 -73 -110 -12 -131 132 -281 271 -281
40 0 53 5 85 34 35 32 37 38 37 93 -1 98 -73 201 -174 249 -42 20 -117 28
-146 15z"/>
<path d="M5989 9858 c-64 -37 -77 -74 -71 -211 3 -79 -1 -163 -13 -258 l-17
-139 24 -47 c31 -63 84 -104 142 -110 65 -8 88 1 153 58 84 74 139 107 218
130 142 41 178 68 205 153 15 45 8 122 -14 164 -39 76 -143 137 -404 238 -126
49 -170 53 -223 22z"/>
<path d="M5501 9787 c-69 -35 -86 -129 -41 -221 48 -94 166 -176 255 -176 38
0 95 36 112 70 64 126 -99 339 -257 340 -25 0 -56 -6 -69 -13z"/>
<path d="M5605 8059 c-114 -101 -35 -372 123 -420 112 -33 192 103 148 253
-47 162 -181 245 -271 167z"/>
<path d="M5994 7955 c-55 -38 -71 -166 -34 -271 38 -109 127 -194 203 -194 52
0 73 13 98 62 58 114 -22 342 -142 404 -36 18 -99 18 -125 -1z"/>
<path d="M7825 7879 c-114 -101 -35 -372 123 -420 112 -33 192 103 148 253
-47 162 -181 245 -271 167z"/>
<path d="M5285 7881 c-41 -18 -68 -59 -73 -110 -12 -131 132 -281 271 -281 40
0 53 5 85 34 35 32 37 38 37 93 -1 98 -73 201 -174 249 -42 20 -117 28 -146
15z"/>
<path d="M8214 7775 c-55 -38 -71 -166 -34 -271 38 -109 127 -194 203 -194 52
0 73 13 98 62 58 114 -22 342 -142 404 -36 18 -99 18 -125 -1z"/>
<path d="M7505 7701 c-41 -18 -68 -59 -73 -110 -12 -131 132 -281 271 -281 40
0 53 5 85 34 35 32 37 38 37 93 -1 98 -73 201 -174 249 -42 20 -117 28 -146
15z"/>
<path d="M5689 7558 c-64 -37 -77 -74 -71 -211 3 -79 -1 -163 -13 -258 l-17
-139 24 -47 c31 -63 84 -104 142 -110 65 -8 88 1 153 58 84 74 139 107 218
130 142 41 178 68 205 153 15 45 8 122 -14 164 -39 76 -143 137 -404 238 -126
49 -170 53 -223 22z"/>
<path d="M5201 7487 c-69 -35 -86 -129 -41 -221 48 -94 166 -176 255 -176 38
0 95 36 112 70 64 126 -99 339 -257 340 -25 0 -56 -6 -69 -13z"/>
<path d="M7909 7378 c-64 -37 -77 -74 -71 -211 3 -79 -1 -163 -13 -258 l-17
-139 24 -47 c31 -63 84 -104 142 -110 65 -8 88 1 153 58 84 74 139 107 218
130 142 41 178 68 205 153 15 45 8 122 -14 164 -39 76 -143 137 -404 238 -126
49 -170 53 -223 22z"/>
<path d="M7421 7307 c-69 -35 -86 -129 -41 -221 48 -94 166 -176 255 -176 38
0 95 36 112 70 64 126 -99 339 -257 340 -25 0 -56 -6 -69 -13z"/>
<path d="M9685 5779 c-114 -101 -35 -372 123 -420 112 -33 192 103 148 253
-47 162 -181 245 -271 167z"/>
<path d="M7645 5719 c-114 -101 -35 -372 123 -420 112 -33 192 103 148 253
-47 162 -181 245 -271 167z"/>
<path d="M10074 5675 c-55 -38 -71 -166 -34 -271 38 -109 127 -194 203 -194
52 0 73 13 98 62 58 114 -22 342 -142 404 -36 18 -99 18 -125 -1z"/>
<path d="M8034 5615 c-55 -38 -71 -166 -34 -271 38 -109 127 -194 203 -194 52
0 73 13 98 62 58 114 -22 342 -142 404 -36 18 -99 18 -125 -1z"/>
<path d="M9365 5601 c-41 -18 -68 -59 -73 -110 -12 -131 132 -281 271 -281 40
0 53 5 85 34 35 32 37 38 37 93 -1 98 -73 201 -174 249 -42 20 -117 28 -146
15z"/>
<path d="M7325 5541 c-41 -18 -68 -59 -73 -110 -12 -131 132 -281 271 -281 40
0 53 5 85 34 35 32 37 38 37 93 -1 98 -73 201 -174 249 -42 20 -117 28 -146
15z"/>
<path d="M9769 5278 c-64 -37 -77 -74 -71 -211 3 -79 -1 -163 -13 -258 l-17
-139 24 -47 c31 -63 84 -104 142 -110 65 -8 88 1 153 58 84 74 139 107 218
130 142 41 178 68 205 153 15 45 8 122 -14 164 -39 76 -143 137 -404 238 -126
49 -170 53 -223 22z"/>
<path d="M7729 5218 c-64 -37 -77 -74 -71 -211 3 -79 -1 -163 -13 -258 l-17
-139 24 -47 c31 -63 84 -104 142 -110 65 -8 88 1 153 58 84 74 139 107 218
130 142 41 178 68 205 153 15 45 8 122 -14 164 -39 76 -143 137 -404 238 -126
49 -170 53 -223 22z"/>
<path d="M9281 5207 c-69 -35 -86 -129 -41 -221 48 -94 166 -176 255 -176 38
0 95 36 112 70 64 126 -99 339 -257 340 -25 0 -56 -6 -69 -13z"/>
<path d="M7241 5147 c-69 -35 -86 -129 -41 -221 48 -94 166 -176 255 -176 38
0 95 36 112 70 64 126 -99 339 -257 340 -25 0 -56 -6 -69 -13z"/>
<path d="M9505 3639 c-114 -101 -35 -372 123 -420 112 -33 192 103 148 253
-47 162 -181 245 -271 167z"/>
<path d="M9894 3535 c-55 -38 -71 -166 -34 -271 38 -109 127 -194 203 -194 52
0 73 13 98 62 58 114 -22 342 -142 404 -36 18 -99 18 -125 -1z"/>
<path d="M9185 3461 c-41 -18 -68 -59 -73 -110 -12 -131 132 -281 271 -281 40
0 53 5 85 34 35 32 37 38 37 93 -1 98 -73 201 -174 249 -42 20 -117 28 -146
15z"/>
<path d="M11785 3259 c-114 -101 -35 -372 123 -420 112 -33 192 103 148 253
-47 162 -181 245 -271 167z"/>
<path d="M12174 3155 c-55 -38 -71 -166 -34 -271 38 -109 127 -194 203 -194
52 0 73 13 98 62 58 114 -22 342 -142 404 -36 18 -99 18 -125 -1z"/>
<path d="M9589 3138 c-64 -37 -77 -74 -71 -211 3 -79 -1 -163 -13 -258 l-17
-139 24 -47 c31 -63 84 -104 142 -110 65 -8 88 1 153 58 84 74 139 107 218
130 142 41 178 68 205 153 15 45 8 122 -14 164 -39 76 -143 137 -404 238 -126
49 -170 53 -223 22z"/>
<path d="M11465 3081 c-41 -18 -68 -59 -73 -110 -12 -131 132 -281 271 -281
40 0 53 5 85 34 35 32 37 38 37 93 -1 98 -73 201 -174 249 -42 20 -117 28
-146 15z"/>
<path d="M9101 3067 c-69 -35 -86 -129 -41 -221 48 -94 166 -176 255 -176 38
0 95 36 112 70 64 126 -99 339 -257 340 -25 0 -56 -6 -69 -13z"/>
<path d="M11869 2758 c-64 -37 -77 -74 -71 -211 3 -79 -1 -163 -13 -258 l-17
-139 24 -47 c31 -63 84 -104 142 -110 65 -8 88 1 153 58 84 74 139 107 218
130 142 41 178 68 205 153 15 45 8 122 -14 164 -39 76 -143 137 -404 238 -126
49 -170 53 -223 22z"/>
<path d="M11381 2687 c-69 -35 -86 -129 -41 -221 48 -94 166 -176 255 -176 38
0 95 36 112 70 64 126 -99 339 -257 340 -25 0 -56 -6 -69 -13z"/>
</g>
</svg>
