<?xml version="1.0" standalone="no"?>
<!DOCTYPE svg PUBLIC "-//W3C//DTD SVG 20010904//EN"
 "http://www.w3.org/TR/2001/REC-SVG-20010904/DTD/svg10.dtd">
<svg version="1.0" xmlns="http://www.w3.org/2000/svg"
 width="1280.000000pt" height="640.000000pt" viewBox="0 0 1280.000000 640.000000"
 preserveAspectRatio="xMidYMid meet">
<metadata>
Created by potrace 1.15, written by Peter Selinger 2001-2017
</metadata>
<g transform="translate(0.000000,640.000000) scale(0.100000,-0.100000)"
fill="#000000" stroke="none">
<path d="M4321 5495 c-47 -9 -81 -21 -96 -35 -30 -28 -80 -122 -95 -179 -23
-89 21 -234 110 -358 38 -53 40 -60 34 -105 -6 -44 -3 -54 30 -107 42 -69 44
-77 13 -85 -19 -4 -25 -16 -35 -66 -12 -56 -12 -62 8 -87 28 -35 26 -41 -19
-59 -32 -13 -43 -25 -61 -65 -30 -70 -24 -99 24 -124 52 -27 54 -39 9 -51 -23
-5 -39 -16 -41 -26 -4 -19 37 -32 133 -43 150 -15 145 -30 -14 -40 -101 -7
-108 -9 -140 -39 -60 -56 -91 -106 -91 -147 0 -55 -8 -69 -41 -69 -79 0 -189
-94 -189 -163 0 -24 -10 -45 -34 -73 -28 -33 -34 -49 -39 -104 -7 -80 -38
-197 -62 -233 -20 -32 -63 -42 -144 -34 -76 6 -120 31 -213 115 -42 39 -101
88 -131 110 -84 63 -277 285 -277 321 0 23 -229 248 -307 302 -93 64 -241 134
-328 156 -57 14 -78 15 -143 5 -91 -14 -183 -57 -232 -107 -33 -35 -35 -40
-38 -120 -5 -97 15 -178 53 -223 45 -54 343 -172 433 -172 61 0 121 -22 164
-60 24 -20 53 -40 66 -44 16 -5 25 -20 33 -51 13 -52 37 -80 86 -100 20 -8 55
-33 79 -55 24 -22 48 -40 52 -40 5 0 13 -15 18 -32 6 -21 24 -42 50 -60 23
-15 52 -48 67 -76 14 -26 50 -71 79 -98 29 -27 118 -132 198 -233 159 -202
181 -220 276 -221 37 0 79 11 145 37 l94 38 245 5 c218 4 245 7 248 22 2 9 -5
19 -17 23 -27 8 -26 16 5 46 29 27 64 90 64 115 0 30 -40 82 -77 99 -26 13
-50 16 -86 11 -57 -6 -102 -33 -186 -110 -70 -64 -175 -127 -290 -174 -77 -31
-93 -34 -150 -28 -90 8 -111 24 -193 144 -25 36 -38 66 -38 88 0 40 -34 81
-125 154 -35 28 -75 69 -89 93 -28 48 -76 100 -112 124 -14 9 -34 32 -44 52
-10 20 -55 77 -99 126 -261 291 -241 272 -306 294 -34 10 -108 27 -165 36
-123 20 -155 32 -221 81 -63 46 -63 61 1 70 56 7 80 26 64 52 -14 22 -69 49
-118 57 -39 7 -39 7 -15 21 13 7 50 16 82 20 64 7 90 25 85 58 -2 16 -14 24
-45 31 -98 24 -64 52 50 43 107 -9 279 -97 394 -202 58 -54 97 -98 277 -319
91 -111 449 -473 506 -512 72 -48 112 -58 162 -38 31 12 44 13 64 4 23 -10 29
-8 57 21 92 94 145 89 72 -6 -38 -50 -44 -73 -20 -82 23 -9 63 22 95 73 42 65
48 102 21 123 -22 16 -22 16 -5 89 10 48 14 91 10 122 -5 38 -2 57 13 86 11
21 23 50 26 65 4 23 20 35 88 68 46 22 89 40 95 40 7 0 44 11 84 24 40 13 99
29 130 35 60 13 89 34 70 53 -15 15 -80 12 -127 -5 -22 -8 -102 -38 -177 -66
-75 -28 -142 -51 -148 -51 -26 0 -5 22 48 49 31 16 71 44 87 61 17 18 47 43
68 57 l38 24 -20 26 c-12 14 -18 30 -15 35 13 21 133 67 215 83 102 20 129 30
129 50 0 12 13 15 58 15 45 0 63 4 76 19 14 15 37 21 104 25 215 15 246 5 384
-127 86 -81 98 -97 104 -135 4 -24 47 -122 96 -219 75 -147 90 -187 98 -245 4
-38 16 -91 26 -119 18 -49 18 -52 -1 -117 -24 -86 -30 -228 -15 -362 14 -121
22 -142 53 -138 17 2 25 14 33 48 9 35 15 45 30 43 47 -4 194 -52 224 -73 29
-20 40 -22 108 -17 51 3 106 16 162 37 74 28 94 31 158 27 88 -5 106 -17 63
-43 -36 -21 -47 -42 -26 -50 57 -22 413 183 465 269 10 15 37 40 61 56 57 36
139 116 139 136 0 24 -34 17 -76 -16 -53 -42 -101 -61 -149 -57 -39 3 -38 4
87 66 109 53 129 67 134 90 17 76 27 94 57 104 28 10 29 12 12 25 -23 16 -188
18 -234 2 -47 -17 -37 -29 24 -29 89 0 76 -11 -112 -90 -29 -12 -58 -28 -64
-36 -23 -28 19 -25 130 11 62 20 115 34 118 31 5 -5 -181 -99 -353 -179 l-81
-37 -23 -61 c-18 -51 -27 -63 -56 -75 -42 -18 -44 -18 -44 4 -1 44 -13 46
-104 17 -83 -26 -89 -27 -139 -13 -49 14 -52 16 -55 51 -8 96 46 170 170 233
42 21 94 58 124 89 29 29 72 66 96 82 31 20 52 46 75 93 18 35 49 81 69 101
43 44 42 74 -3 63 -72 -17 -134 -67 -167 -131 -9 -17 -30 -41 -47 -54 -17 -12
-44 -40 -60 -61 -40 -56 -119 -115 -237 -177 -112 -59 -131 -76 -141 -123 -8
-41 -32 -47 -61 -16 -21 23 -21 23 -1 26 33 5 55 98 29 119 -27 22 -94 35
-169 35 -77 0 -79 0 -79 24 0 20 5 24 33 24 17 0 81 -11 140 -24 119 -26 122
-25 147 34 12 29 11 33 -15 60 -16 17 -34 30 -39 30 -6 0 -24 7 -41 16 -41 21
-169 31 -180 14 -5 -8 -2 -18 8 -25 26 -19 20 -27 -15 -23 -25 2 -36 10 -46
31 -8 16 -11 35 -8 43 8 21 118 18 190 -6 95 -32 187 -22 119 13 -25 13 -68
24 -283 70 -45 10 -56 16 -58 35 -2 13 3 24 12 28 8 3 79 -15 156 -40 78 -25
153 -46 168 -46 l27 1 -28 24 c-15 13 -46 29 -70 36 -48 13 -113 44 -122 59
-9 15 50 1 139 -32 63 -24 80 -28 87 -17 16 26 3 33 -193 104 -76 27 -70 38
16 30 54 -5 76 -4 76 4 0 6 -11 17 -25 23 -14 6 -25 15 -25 20 0 4 11 8 25 8
49 0 18 43 -43 59 -20 6 -82 15 -137 21 -55 7 -104 14 -109 18 -19 12 31 21
122 21 50 1 92 4 92 8 0 3 -7 15 -17 25 -15 17 -14 18 24 18 46 0 60 -12 65
-54 3 -28 31 -56 43 -44 4 3 -1 21 -10 38 l-17 33 34 -5 c18 -3 44 -1 58 4
l25 10 -24 19 c-13 10 -36 19 -52 19 -15 0 -30 4 -33 9 -12 18 21 18 79 0 73
-23 94 -24 102 -4 6 18 -23 44 -49 45 -9 0 -30 11 -47 26 -37 31 -95 103 -89
110 3 2 36 -9 75 -25 38 -16 94 -33 124 -36 105 -12 118 -16 171 -55 52 -40
81 -49 93 -30 20 32 -50 92 -154 131 -49 18 -61 19 -93 8 -36 -12 -39 -11 -83
27 -81 68 -88 71 -130 51 -25 -12 -48 -15 -75 -11 -58 9 -81 0 -148 -60 -36
-32 -79 -60 -103 -68 -31 -9 -44 -19 -51 -40 -11 -30 -37 -43 -69 -33 -22 7
-138 122 -201 198 -28 34 -53 51 -95 67 -32 12 -90 39 -130 61 -90 49 -121 51
-129 9 -5 -23 -12 -30 -31 -30 -46 0 -93 28 -108 64 -21 49 -19 96 10 250 50
275 51 534 0 711 -28 98 -38 112 -168 211 -64 48 -67 48 -176 29z m163 -139
c22 -9 40 -28 55 -57 12 -24 31 -59 42 -76 35 -56 50 -132 56 -284 4 -113 2
-170 -11 -248 -29 -169 -50 -210 -80 -153 -9 17 -30 41 -47 55 l-31 24 17 33
c23 44 15 88 -30 162 -38 64 -38 78 1 78 53 0 36 48 -50 138 -22 23 -45 42
-51 42 -6 0 -31 28 -54 62 -37 54 -42 68 -38 100 4 28 0 44 -15 63 l-20 26 23
25 c21 22 30 24 111 24 53 0 102 -6 122 -14z m-120 -366 c17 -26 22 -40 13
-40 -19 0 -100 86 -93 99 10 16 49 -13 80 -59z m181 -603 c26 -59 45 -118 43
-130 -3 -21 -5 -21 -34 10 -20 20 -34 47 -38 72 -3 21 -15 60 -25 85 -11 25
-23 62 -26 83 l-6 38 20 -25 c11 -14 41 -74 66 -133z m-125 28 c0 -8 -4 -15
-10 -15 -5 0 -10 7 -10 15 0 8 5 15 10 15 6 0 10 -7 10 -15z m-10 -147 c0 -17
-3 -18 -15 -8 -8 7 -15 21 -15 32 0 17 3 18 15 8 8 -7 15 -21 15 -32z m197
-94 c-3 -3 -12 -4 -19 -1 -8 3 -5 6 6 6 11 1 17 -2 13 -5z m1188 -193 c10 -17
-11 -21 -31 -6 -18 14 -18 14 3 15 12 0 24 -4 28 -9z m-187 -100 c8 -5 -10
-10 -49 -15 -87 -9 -125 -8 -113 3 18 18 139 27 162 12z m-200 -88 c6 -20 -44
-39 -63 -23 -12 10 -13 16 -3 27 13 16 60 14 66 -4z m212 -72 c35 -10 -120
-24 -157 -14 l-28 7 35 7 c47 9 119 9 150 0z m-20 -91 c0 -6 -27 -10 -62 -10
-45 0 -59 3 -48 10 20 13 110 13 110 0z m-63 -672 c-3 -8 -6 -5 -6 6 -1 11 2
17 5 13 3 -3 4 -12 1 -19z m980 -14 c-3 -3 -12 -4 -19 -1 -8 3 -5 6 6 6 11 1
17 -2 13 -5z m-764 -28 c31 -14 30 -14 -48 -15 -83 -1 -113 8 -100 29 9 15
100 6 148 -14z m157 -81 c18 -21 5 -45 -25 -45 -27 0 -41 20 -31 45 7 19 40
19 56 0z m-1690 -10 c0 -16 -46 -32 -58 -20 -8 8 26 35 45 35 7 0 13 -7 13
-15z"/>
<path d="M8540 4550 c-94 -45 -141 -89 -222 -203 -47 -67 -144 -175 -283 -317
-197 -201 -335 -364 -335 -396 0 -17 4 -18 -82 6 -40 10 -102 24 -138 30 -60
10 -71 9 -130 -13 -69 -25 -90 -53 -48 -61 85 -17 164 -38 172 -46 15 -15 -24
-12 -183 14 -138 23 -171 24 -171 5 0 -14 31 -26 98 -39 75 -15 77 -32 5 -41
-62 -8 -73 -14 -73 -40 0 -20 -4 -20 -75 -14 -125 12 -248 10 -282 -4 -37 -15
-49 -39 -30 -58 16 -16 251 -38 270 -26 7 4 94 8 194 8 100 0 185 3 189 8 16
16 -17 28 -101 37 -117 12 -129 26 -29 34 115 9 178 24 219 52 20 13 46 24 59
24 34 0 39 11 14 37 -21 23 -21 23 -1 23 11 0 49 -13 84 -29 69 -31 224 -69
236 -57 11 10 -27 43 -81 69 l-49 23 32 14 c22 9 40 28 56 60 13 25 31 53 41
61 9 8 33 48 51 89 31 67 52 93 202 245 92 94 197 208 233 255 74 96 154 175
195 192 37 14 209 14 255 -1 42 -14 104 -77 115 -118 16 -55 7 -560 -11 -687
-24 -169 -35 -192 -109 -227 -69 -32 -158 -55 -181 -46 -14 6 -16 24 -14 127
2 127 -6 155 -35 125 -26 -25 -47 -112 -47 -193 l0 -74 -27 7 c-16 3 -52 20
-82 37 l-54 31 6 98 c8 128 24 159 131 248 99 83 126 122 126 182 0 62 -10 73
-59 66 -60 -8 -100 -41 -132 -113 -29 -63 -118 -180 -241 -316 -75 -83 -92
-116 -78 -152 15 -41 133 -116 182 -116 32 0 56 -16 43 -29 -6 -6 -66 -40
-134 -76 -202 -108 -293 -179 -325 -255 -21 -52 -30 -167 -17 -217 19 -68 118
-133 205 -133 53 0 15 -17 -73 -34 -96 -18 -125 -36 -100 -62 14 -14 22 -14
75 0 32 8 88 20 124 26 161 28 161 28 158 63 l-3 32 55 3 c35 2 67 -3 91 -14
27 -12 55 -15 97 -12 52 4 64 8 93 39 19 20 77 58 129 86 97 52 144 90 155
123 3 11 37 40 76 65 38 25 79 60 89 78 42 67 13 124 -58 115 -51 -7 -318
-136 -363 -176 -51 -45 -116 -71 -191 -78 -101 -9 -108 -12 -180 -81 -37 -37
-69 -64 -71 -62 -2 2 -9 22 -15 45 -23 81 -61 90 -128 32 -38 -34 -40 -32 -19
19 15 35 15 39 -6 67 -17 23 -20 33 -11 45 7 9 21 32 31 52 23 41 76 87 179
153 108 70 161 91 330 130 185 43 206 50 397 131 217 93 309 112 407 84 35 -9
41 -17 77 -92 21 -45 42 -96 45 -113 14 -65 -19 -171 -114 -361 -144 -289
-294 -500 -564 -797 -103 -112 -126 -144 -124 -164 2 -21 10 -28 41 -34 21 -4
48 -15 60 -23 12 -8 40 -15 63 -15 34 0 43 4 52 25 13 28 32 34 32 9 0 -8 13
-27 28 -42 16 -15 36 -40 46 -55 13 -21 23 -27 37 -23 10 3 27 9 38 12 15 5
20 -1 25 -29 4 -19 14 -41 22 -48 28 -23 48 2 60 72 l10 64 7 -41 c4 -23 16
-52 27 -65 20 -24 20 -24 35 -5 18 24 20 111 2 146 -11 22 -62 63 -89 72 -7 3
-5 13 6 31 19 28 15 47 -10 47 -8 0 -21 15 -29 34 -15 35 -16 36 -110 52 -37
7 -31 9 68 26 124 20 154 32 136 54 -8 10 -35 14 -100 14 -65 0 -89 3 -89 13
0 6 27 44 61 82 92 106 152 203 246 395 89 182 137 260 160 260 8 0 13 -11 13
-28 0 -32 25 -72 45 -72 22 0 32 28 44 122 10 86 32 148 51 148 6 0 10 12 10
26 0 26 -2 27 -45 21 -43 -6 -45 -5 -51 21 -44 195 -79 256 -178 312 -67 39
-145 40 -271 5 -50 -14 -101 -25 -114 -25 -22 0 -23 3 -17 43 19 126 26 272
26 545 l0 302 -47 49 c-59 60 -88 69 -253 77 -125 6 -125 6 -190 -26z m190
-1680 c0 -14 -30 -27 -104 -44 -37 -9 -84 -26 -105 -38 l-39 -22 -36 24 c-20
14 -36 28 -36 31 0 3 53 13 118 23 64 9 133 21 152 25 48 12 50 12 50 1z"/>
<path d="M4349 3899 c-71 -16 -149 -50 -149 -65 0 -25 24 -26 79 -4 28 11 65
20 80 20 27 0 82 33 71 43 -12 11 -48 14 -81 6z"/>
<path d="M10568 3864 c-73 -22 -147 -99 -208 -216 -32 -62 -50 -109 -50 -131
0 -19 21 -115 46 -213 37 -147 48 -211 60 -357 9 -98 13 -185 10 -193 -5 -13
-9 -13 -28 0 -12 9 -35 16 -50 16 -35 0 -70 14 -92 36 -15 14 -17 28 -11 86 7
67 7 68 -17 68 -25 0 -60 -31 -72 -64 -11 -31 13 -95 51 -137 47 -52 101 -79
170 -86 47 -5 56 -10 69 -36 14 -26 19 -28 47 -23 71 14 99 83 80 193 -11 58
-2 83 28 83 29 0 89 62 89 92 -1 35 -35 105 -59 117 -11 6 -25 29 -31 51 -6
21 -15 42 -21 45 -5 4 -21 30 -36 58 -14 29 -36 72 -49 97 -29 59 -54 156 -54
213 0 56 25 79 109 103 77 23 112 41 139 75 13 16 29 29 36 29 25 0 277 -274
375 -407 29 -40 83 -100 119 -134 l67 -61 135 5 c74 2 148 9 163 16 23 9 33 8
50 -4 12 -8 34 -15 49 -15 23 0 28 -4 28 -25 0 -22 4 -25 33 -25 61 0 82 55
26 67 -29 6 -31 8 -26 40 7 43 -19 58 -41 25 -18 -28 -47 -28 -66 -1 -8 12
-25 27 -38 33 -13 6 -35 33 -49 60 -15 26 -33 52 -40 57 -15 9 -49 -16 -49
-37 0 -7 -11 -26 -25 -42 -18 -22 -39 -32 -84 -42 -55 -11 -63 -11 -93 7 -20
12 -52 50 -84 102 -53 88 -163 205 -250 269 -29 20 -59 51 -67 67 -26 53 -77
115 -110 135 -38 24 -110 25 -179 4z m-81 -696 c-3 -8 -6 -5 -6 6 -1 11 2 17
5 13 3 -3 4 -12 1 -19z"/>
<path d="M6347 3813 c-15 -14 -6 -70 12 -87 24 -22 41 -13 41 19 0 53 -30 92
-53 68z"/>
<path d="M6412 3704 c-9 -18 -21 -58 -36 -126 -6 -26 -4 -28 24 -28 23 0 44
14 95 64 36 35 65 68 65 74 0 14 -22 21 -85 28 -45 6 -54 4 -63 -12z"/>
<path d="M4200 3646 c-106 -39 -200 -99 -200 -127 0 -33 27 -32 87 4 32 19 77
44 101 56 59 30 89 60 71 72 -17 11 -16 11 -59 -5z"/>
<path d="M8666 3555 c-20 -20 -21 -81 -2 -88 21 -8 48 27 49 64 2 38 -21 50
-47 24z"/>
<path d="M7955 3550 c-15 -24 6 -59 54 -89 49 -32 121 -52 121 -34 0 7 -57 53
-157 126 -6 4 -14 3 -18 -3z"/>
<path d="M7055 3506 c-24 -17 -11 -36 26 -36 33 0 40 23 10 39 -13 7 -23 6
-36 -3z"/>
<path d="M7943 3397 c-8 -13 24 -35 96 -65 74 -30 135 -40 129 -21 -11 36
-209 112 -225 86z"/>
<path d="M7707 3382 c-16 -25 76 -72 155 -79 47 -5 58 -3 58 9 0 33 -197 98
-213 70z"/>
<path d="M2030 3268 c0 -71 117 -294 191 -366 24 -23 40 -44 37 -48 -11 -10
-107 23 -198 67 -47 22 -135 60 -195 83 -62 23 -151 68 -203 101 -98 62 -181
96 -213 88 -89 -24 157 -203 402 -294 147 -54 155 -67 26 -44 -105 18 -168 45
-278 119 -81 54 -112 66 -123 47 -11 -17 6 -40 59 -80 151 -114 381 -192 476
-161 50 17 85 2 168 -69 97 -85 247 -180 293 -188 31 -4 55 -18 90 -51 30 -28
53 -42 63 -38 30 11 17 39 -66 136 -26 30 -63 82 -82 115 -20 33 -61 85 -91
115 -93 90 -60 90 46 -1 31 -27 90 -68 130 -90 40 -23 105 -61 144 -85 83 -51
119 -57 112 -19 -3 14 -4 25 -2 25 2 0 58 -33 126 -74 138 -84 225 -154 292
-237 25 -31 60 -65 79 -76 19 -12 46 -43 64 -74 33 -59 171 -247 194 -265 8
-6 27 -14 43 -18 16 -4 54 -25 84 -47 30 -21 61 -39 69 -39 16 0 17 22 2 37
-18 18 8 25 38 10 15 -8 56 -17 89 -20 34 -4 86 -16 115 -27 45 -18 54 -19 67
-7 11 12 11 19 3 36 -7 11 -15 21 -19 21 -12 0 -122 100 -122 111 0 5 15 9 34
9 19 0 37 4 41 10 3 5 -10 30 -30 55 -19 26 -35 57 -35 69 0 105 -267 367
-296 291 -5 -12 12 -35 65 -84 47 -44 71 -74 71 -89 0 -31 -20 -28 -71 11 -43
33 -82 57 -93 57 -11 0 -5 -35 9 -54 19 -25 19 -56 1 -56 -19 0 -46 38 -46 64
0 30 -188 212 -228 221 -18 4 -69 34 -114 67 -142 106 -238 159 -238 133 0 -4
21 -32 46 -61 25 -30 43 -54 40 -54 -10 0 -154 88 -236 144 -41 28 -130 97
-199 154 -118 96 -151 116 -151 91 0 -24 26 -53 136 -150 63 -55 113 -103 111
-106 -9 -8 -122 54 -228 125 -172 115 -355 295 -415 407 -49 91 -84 113 -84
53z m250 -538 c0 -14 -14 -12 -28 2 -19 19 -14 30 8 18 11 -6 20 -15 20 -20z
m1199 -480 c12 -22 21 -46 18 -53 -2 -6 -16 12 -31 41 -31 61 -20 71 13 12z
m291 -256 c75 -70 62 -96 -17 -37 -36 27 -57 58 -48 73 9 15 12 13 65 -36z"/>
<path d="M4188 3193 c-21 -8 -38 -22 -38 -30 0 -23 124 -14 148 10 15 16 15
19 2 27 -22 14 -70 11 -112 -7z"/>
<path d="M7213 3194 c-13 -3 -23 -9 -23 -14 0 -16 72 -31 173 -37 82 -5 97 -4
97 9 0 9 -16 20 -39 26 -44 14 -174 23 -208 16z"/>
<path d="M12630 3141 c-16 -16 -31 -40 -34 -55 -4 -14 -8 -37 -11 -50 -3 -15
-14 -26 -29 -30 -14 -3 -34 -23 -47 -43 -95 -159 -139 -186 -320 -191 -167 -6
-193 3 -225 72 -13 28 -24 56 -24 62 0 6 -14 28 -30 49 -17 21 -33 50 -37 64
-9 39 -22 51 -57 51 -93 0 -102 -145 -11 -162 16 -3 20 -11 20 -48 0 -32 7
-54 23 -74 12 -16 29 -51 37 -79 8 -27 26 -69 40 -93 14 -23 25 -49 25 -58 0
-26 60 -86 85 -86 36 0 37 13 5 76 -17 33 -33 83 -37 113 l-6 53 59 -6 c32 -3
145 -8 249 -12 158 -5 193 -3 209 9 19 14 19 15 -4 46 -21 30 -22 36 -10 71
19 59 53 113 78 126 12 6 33 23 46 37 29 31 35 32 61 13 18 -13 18 -17 2 -122
-10 -60 -17 -121 -17 -136 0 -38 -49 -189 -69 -212 -9 -10 -38 -30 -66 -43
-27 -14 -80 -45 -117 -69 -81 -52 -138 -72 -245 -87 -95 -12 -107 -7 -138 64
l-18 39 -171 -2 c-146 -3 -171 -5 -174 -19 -5 -25 45 -40 176 -52 103 -9 122
-14 122 -28 0 -21 -17 -34 -52 -43 -21 -5 -28 -12 -28 -30 0 -29 14 -41 71
-61 24 -9 61 -27 81 -41 21 -13 64 -34 95 -46 81 -30 305 -145 391 -201 124
-80 194 -157 145 -157 -41 -1 -46 -14 -34 -82 12 -72 6 -124 -15 -132 -17 -6
-80 47 -99 83 -7 14 -16 49 -20 76 -11 73 -24 92 -127 191 -107 102 -175 142
-307 180 -94 27 -120 28 -252 8 -51 -7 -94 10 -163 65 -41 33 -65 38 -84 19
-17 -17 -15 -42 8 -71 l20 -25 -41 5 c-36 5 -43 3 -69 -28 -31 -36 -39 -69
-17 -69 7 0 30 -12 52 -27 32 -22 53 -28 105 -29 36 -1 68 -2 73 -3 4 -1 7
-12 7 -25 0 -26 8 -30 77 -41 24 -4 45 -11 49 -16 10 -17 -50 -9 -121 15 -128
44 -236 76 -256 76 -32 0 -20 -41 20 -67 19 -13 58 -30 87 -39 60 -17 94 -55
76 -85 -15 -24 -6 -29 55 -29 39 0 53 -4 53 -14 0 -8 -6 -16 -12 -19 -25 -9
-141 13 -201 39 -34 14 -80 32 -102 39 -22 7 -62 22 -88 34 -57 25 -67 26 -67
7 0 -22 79 -85 120 -96 41 -11 101 -49 107 -67 5 -13 -69 -49 -182 -88 -44
-15 -125 -48 -180 -73 -86 -38 -112 -45 -185 -49 -70 -4 -95 -11 -143 -36 -99
-52 -137 -119 -72 -125 23 -2 37 4 60 28 36 38 50 38 70 0 16 -31 55 -42 55
-16 0 16 28 42 36 33 3 -3 1 -15 -6 -26 -14 -28 0 -55 39 -71 48 -19 61 -8 61
50 0 32 4 51 13 52 6 1 226 2 488 2 391 1 479 3 493 15 15 13 15 15 0 32 -10
11 -22 19 -29 19 -6 0 -29 13 -51 30 -47 34 -61 36 -338 50 -103 5 -191 12
-194 15 -4 3 0 10 8 15 30 18 150 22 343 11 216 -12 255 -7 222 29 -15 17 -14
19 17 29 18 5 74 19 123 31 50 11 126 36 170 55 53 23 81 31 86 24 4 -6 10
-48 13 -93 12 -145 11 -142 81 -181 44 -25 74 -35 105 -35 38 0 48 5 86 45 71
73 77 93 82 243 l4 134 -53 55 c-83 84 -163 140 -289 202 -63 32 -134 69 -158
84 -23 15 -62 35 -86 45 -24 9 -45 22 -46 27 -1 6 26 17 59 26 67 18 358 198
423 263 42 41 124 198 133 254 4 20 13 57 22 81 11 31 14 61 9 105 -7 74 -41
202 -62 234 -21 32 -68 29 -104 -7z m-810 -1161 c0 -5 -9 -10 -19 -10 -11 0
-23 5 -26 10 -4 6 5 10 19 10 14 0 26 -4 26 -10z m186 -85 c16 -13 17 -16 4
-25 -19 -13 -48 -13 -63 0 -7 6 -21 17 -32 25 -19 13 -17 14 26 15 25 0 54 -7
65 -15z m98 -104 c6 -9 -40 -21 -80 -21 -33 0 -30 18 4 23 50 8 71 7 76 -2z
m101 -90 c3 -5 1 -12 -5 -16 -5 -3 -10 1 -10 9 0 18 6 21 15 7z m-271 -70 c11
-18 -25 -34 -79 -35 -30 0 -56 4 -57 9 -6 22 123 47 136 26z m-276 -23 c-3 -7
-11 -13 -18 -13 -7 0 -15 6 -17 13 -3 7 4 12 17 12 13 0 20 -5 18 -12z m-163
-227 c27 -15 -219 -29 -272 -15 -31 9 -29 22 5 27 35 6 254 -4 267 -12z"/>
<path d="M7102 3091 c-30 -19 19 -33 130 -37 123 -6 160 4 124 31 -15 11 -48
15 -130 15 -61 0 -117 -4 -124 -9z"/>
<path d="M9673 3094 c-20 -9 -36 -70 -23 -94 15 -29 37 -25 55 11 28 53 10
100 -32 83z"/>
<path d="M9770 3043 c-29 -24 -31 -30 -28 -82 3 -54 2 -56 -24 -59 -38 -5 -81
-57 -68 -83 6 -10 22 -22 35 -25 14 -3 25 -9 25 -13 0 -3 -20 -25 -44 -49 -24
-23 -51 -61 -61 -83 -17 -38 -18 -50 -6 -152 20 -180 24 -408 12 -609 -11
-179 -10 -190 9 -245 11 -31 20 -77 20 -101 l0 -44 -37 7 c-47 7 -127 -17
-272 -83 -121 -54 -142 -79 -62 -69 28 3 51 3 50 -1 0 -4 -21 -24 -45 -45 -40
-32 -52 -37 -97 -37 -29 0 -81 -9 -115 -20 -73 -23 -216 -27 -268 -8 -27 10
-43 8 -111 -14 -43 -15 -100 -29 -128 -33 -59 -8 -156 -37 -237 -71 -49 -21
-74 -24 -171 -24 -84 0 -118 4 -133 15 -38 29 -200 15 -317 -27 -68 -24 -83
-19 -32 11 67 39 14 56 -64 21 -55 -26 -92 -25 -125 1 -24 19 -34 20 -180 13
-147 -6 -158 -6 -208 16 -45 19 -63 22 -125 16 -98 -8 -218 -33 -273 -57 -60
-27 -266 -79 -304 -78 -21 1 -24 3 -11 6 11 2 34 11 52 19 17 8 39 14 48 14 9
0 67 20 128 43 62 24 124 47 140 51 29 7 37 33 11 43 -8 3 -34 0 -56 -6 -40
-12 -41 -12 -79 25 l-39 38 -39 -22 c-21 -12 -83 -33 -137 -47 -55 -15 -126
-39 -159 -55 -85 -41 -143 -53 -280 -54 -103 -2 -126 -5 -160 -24 -44 -24
-100 -28 -140 -10 -24 11 -35 38 -16 38 18 0 20 30 2 39 -10 6 -66 15 -126 21
-59 6 -168 26 -241 45 -135 35 -208 43 -219 25 -3 -5 -25 -10 -48 -10 -23 0
-49 -5 -57 -10 -13 -9 -13 -12 3 -24 23 -17 220 -62 492 -111 38 -7 39 -8 15
-17 -61 -23 -477 60 -632 126 -21 9 -49 16 -64 16 -50 0 -208 62 -409 160
-207 101 -319 174 -402 264 -49 53 -86 73 -203 112 -84 29 -88 29 -315 29
-162 -1 -264 -6 -345 -18 -240 -35 -440 -42 -440 -16 0 5 24 9 53 10 79 1 101
10 105 41 3 24 -1 28 -40 38 -108 28 -162 45 -280 91 -134 51 -168 58 -168 34
0 -18 18 -27 112 -61 82 -30 115 -49 99 -58 -13 -9 -211 56 -339 110 -56 25
-148 62 -205 83 -56 21 -149 60 -207 86 -140 63 -201 83 -284 96 -39 6 -103
22 -143 35 -86 28 -126 29 -248 8 -102 -17 -193 -48 -383 -129 -72 -31 -176
-68 -230 -82 -100 -26 -123 -28 -427 -20 -76 2 -84 -5 -71 -59 13 -49 134 -77
175 -40 17 16 22 16 48 3 45 -23 138 -28 289 -17 243 18 490 63 639 116 97 34
341 52 494 36 110 -11 202 -39 243 -72 33 -27 20 -31 -42 -14 -64 18 -506 31
-633 19 -87 -8 -101 -26 -26 -35 69 -8 93 -33 44 -46 -13 -3 -29 -12 -35 -19
-22 -27 25 -35 197 -35 118 0 182 -5 216 -15 57 -17 316 -35 510 -35 250 0
142 -16 -173 -26 -265 -8 -312 -12 -326 -26 -36 -35 -12 -38 309 -32 350 7
541 -4 662 -36 117 -31 262 -36 425 -14 95 12 196 18 340 17 177 0 216 -3 285
-21 101 -28 248 -99 305 -150 25 -21 59 -46 75 -55 17 -8 62 -43 102 -77 66
-56 78 -62 135 -70 51 -8 67 -15 88 -39 14 -16 36 -32 50 -36 14 -4 52 -22 85
-40 84 -46 486 -151 615 -160 52 -4 116 -11 142 -16 26 -4 161 -13 300 -19
376 -15 393 -17 429 -47 30 -25 33 -26 137 -20 118 6 257 32 424 78 69 20 120
29 136 25 24 -6 367 -27 432 -27 119 0 127 2 200 37 95 46 120 55 120 46 0 -4
-18 -18 -41 -32 -54 -33 -66 -56 -38 -70 51 -28 137 -50 192 -50 33 0 110 12
171 26 98 24 115 25 158 14 32 -8 76 -9 132 -5 57 5 86 4 90 -4 4 -6 21 -11
39 -11 20 0 41 -9 58 -26 l27 -26 99 32 c100 34 213 78 316 124 l57 26 -15
-24 c-17 -26 -11 -56 12 -56 8 0 67 18 132 40 130 44 152 47 171 24 17 -20 49
-15 260 41 339 90 479 125 495 125 13 0 16 -5 10 -22 -19 -62 -18 -68 6 -68
13 0 41 10 61 23 80 48 213 141 249 174 93 84 -28 62 -156 -28 -43 -30 -95
-42 -102 -22 -2 6 4 14 15 17 10 4 45 23 78 43 32 20 75 42 94 48 42 16 55 34
47 66 -4 17 -17 28 -38 34 -18 6 -34 15 -36 21 -2 6 15 33 37 61 22 28 40 56
40 61 0 6 -12 20 -27 32 -27 21 -27 22 -8 32 34 20 66 58 63 76 -5 24 -36 27
-59 6 -28 -25 -35 -10 -10 24 36 51 25 62 -64 62 -87 0 -81 16 31 83 34 21 69
48 78 62 21 32 20 94 -1 125 -10 14 -20 51 -23 85 -5 63 -2 59 -80 95 -8 4
-15 16 -15 26 0 16 8 19 54 19 33 0 56 5 58 12 2 6 -24 40 -58 75 -112 113
-168 220 -135 257 23 25 21 32 -25 72 -52 44 -46 64 13 43 60 -21 98 -19 98 6
0 11 9 48 21 82 11 33 19 75 17 92 -3 27 -9 33 -53 48 -74 24 -108 22 -145 -9z
m180 -817 c-14 -7 -36 -17 -50 -20 l-25 -7 24 20 c13 12 35 21 50 21 l26 -1
-25 -13z m-8876 -75 c8 -13 -68 -41 -110 -41 -41 0 -42 17 -3 37 28 15 105 17
113 4z m359 -17 c49 -10 28 -22 -50 -28 -43 -4 -123 -19 -178 -32 -229 -58
-290 -73 -293 -69 -6 5 45 30 134 66 184 73 266 87 387 63z m-708 -134 c0 -18
-83 -47 -159 -56 -46 -6 -49 -5 -31 8 32 24 148 68 170 65 11 -1 20 -9 20 -17z
m1365 -110 l35 -19 -47 -1 c-46 0 -65 11 -53 30 9 14 25 12 65 -10z m7696
-137 c-11 -11 -19 6 -11 24 8 17 8 17 12 0 3 -10 2 -21 -1 -24z m-176 -473 c0
-6 -10 -14 -22 -19 -39 -14 -98 -20 -98 -10 0 5 10 9 23 9 12 0 31 7 41 15 23
17 56 20 56 5z m-3006 -99 c10 -15 -19 -31 -95 -50 -126 -32 -159 -35 -159
-17 0 9 7 19 16 23 12 4 186 44 226 52 4 0 9 -3 12 -8z m1986 -71 c-19 -10
-37 -16 -40 -13 -9 8 33 33 54 33 16 -1 13 -5 -14 -20z m-140 -60 c-30 -19
-191 -80 -210 -80 -11 0 -20 6 -20 13 0 13 30 25 155 61 77 23 105 25 75 6z
m-1497 -17 c-7 -2 -19 -2 -25 0 -7 3 -2 5 12 5 14 0 19 -2 13 -5z"/>
<path d="M11273 3040 c-14 -6 -23 -18 -23 -30 0 -11 -6 -35 -13 -53 -8 -18
-17 -44 -20 -59 -14 -53 50 -77 100 -38 14 11 33 20 41 20 8 0 34 11 57 25 32
18 46 35 57 67 8 24 19 51 23 61 7 16 -1 17 -96 16 -57 0 -114 -4 -126 -9z
m97 -75 c0 -8 -4 -15 -10 -15 -5 0 -10 7 -10 15 0 8 5 15 10 15 6 0 10 -7 10
-15z"/>
<path d="M10067 3000 c-28 -22 -57 -97 -57 -147 0 -39 40 -86 68 -81 14 3 18
18 22 88 3 47 11 95 18 107 16 28 15 30 -7 42 -14 8 -25 6 -44 -9z"/>
<path d="M7155 2984 c-141 -42 -201 -84 -120 -84 42 0 235 46 248 59 6 6 7 17
4 25 -8 20 -64 20 -132 0z"/>
<path d="M6917 2974 c-15 -8 -63 -43 -105 -78 -43 -34 -103 -77 -135 -95 -63
-36 -74 -48 -58 -64 17 -17 81 8 163 62 88 60 198 157 198 177 0 18 -27 17
-63 -2z"/>
<path d="M3374 2826 c-10 -26 59 -91 140 -132 73 -36 102 -42 109 -21 6 16
-20 87 -39 109 -19 20 -90 45 -156 54 -39 6 -49 4 -54 -10z"/>
<path d="M986 2774 c-170 -20 -238 -32 -250 -44 -7 -7 47 -10 174 -11 213 -1
207 -7 -39 -41 -219 -29 -245 -30 -249 0 -4 26 -11 27 -38 7 -19 -15 -19 -15
1 -31 11 -9 35 -23 53 -31 44 -19 34 -30 -77 -89 -170 -91 -300 -186 -334
-243 -18 -31 -18 -31 5 -31 14 0 38 15 59 36 83 86 332 223 515 283 109 35
311 71 403 71 37 0 116 -7 176 -15 73 -10 125 -13 155 -7 25 5 127 4 231 -1
246 -13 291 -1 187 51 -87 44 -252 61 -449 47 -73 -6 -109 -4 -150 8 -63 18
-245 58 -256 56 -5 -1 -57 -7 -117 -15z"/>
<path d="M6260 2576 c-95 -34 -115 -45 -115 -61 0 -31 62 -22 188 26 102 40
126 59 91 73 -25 10 -43 6 -164 -38z"/>
<path d="M960 2575 c-160 -35 -350 -106 -350 -132 0 -28 34 -24 178 21 100 32
177 50 236 55 92 9 110 17 104 47 -4 25 -78 28 -168 9z"/>
<path d="M5557 2584 c-22 -22 7 -155 44 -203 44 -56 286 -231 321 -231 24 0
35 27 20 51 -6 10 -8 20 -4 23 4 3 48 12 98 20 198 35 395 107 402 149 5 26
-31 22 -123 -14 -57 -22 -89 -29 -110 -24 -16 4 -88 10 -160 14 -116 8 -205
27 -205 46 0 3 48 5 106 4 111 -2 142 8 114 36 -18 17 -242 41 -294 31 -34 -7
-60 -43 -50 -69 6 -16 56 -47 76 -47 21 0 118 -50 118 -61 0 -15 -80 -10 -117
7 -46 23 -119 107 -168 195 -39 71 -54 87 -68 73z"/>
<path d="M8129 2566 c-2 -3 -58 -14 -124 -25 -135 -23 -266 -62 -308 -92 -20
-15 -50 -22 -115 -26 -48 -3 -93 -10 -99 -16 -11 -8 -19 -46 -10 -47 1 -1 61
-5 132 -10 72 -5 188 -21 260 -35 137 -27 195 -31 195 -15 0 9 -122 49 -249
82 -79 21 -78 38 2 38 35 0 79 -5 97 -12 18 -6 69 -11 114 -12 71 -1 81 1 84
18 6 27 -15 36 -85 36 -117 0 -66 28 91 51 45 7 91 16 104 20 26 10 29 34 6
43 -18 7 -88 8 -95 2z"/>
<path d="M3786 2510 c-30 -9 -48 -28 -40 -41 16 -27 189 -16 189 11 0 29 -90
47 -149 30z"/>
<path d="M849 2439 c-83 -19 -201 -76 -314 -149 -138 -90 -179 -104 -344 -121
-126 -12 -148 -19 -136 -39 6 -10 40 -11 147 -7 174 8 240 29 376 121 124 83
160 96 307 106 66 5 121 9 123 9 2 1 2 11 0 24 -2 15 -18 29 -48 45 -48 24
-56 25 -111 11z"/>
<path d="M4060 2411 c0 -15 68 -70 95 -77 30 -7 46 2 38 22 -13 33 -133 83
-133 55z"/>
<path d="M3850 2376 c0 -7 15 -36 33 -62 23 -36 39 -50 60 -52 41 -5 35 29
-14 83 -41 44 -79 59 -79 31z"/>
<path d="M7748 2269 c-42 -24 -11 -37 154 -66 77 -14 100 -15 110 -5 23 23
-14 42 -120 62 -117 23 -121 23 -144 9z"/>
<path d="M7687 2181 c-92 -19 -56 -50 61 -52 l67 -1 -110 -22 c-123 -24 -135
-29 -135 -55 0 -26 -16 -36 -87 -56 -69 -19 -108 -50 -79 -61 19 -7 327 39
390 58 22 7 41 21 46 33 4 11 15 27 24 34 9 7 16 22 16 33 0 12 11 23 29 29
34 12 46 33 27 48 -16 14 -199 22 -249 12z m40 -137 c-3 -3 -12 -4 -19 -1 -8
3 -5 6 6 6 11 1 17 -2 13 -5z"/>
<path d="M8088 2008 c-47 -17 -35 -38 21 -38 58 0 81 7 81 25 0 25 -52 32
-102 13z"/>
<path d="M7690 1926 c-79 -33 -182 -86 -202 -104 -24 -20 -23 -42 2 -42 11 0
68 22 128 48 59 27 124 54 145 61 40 14 48 34 18 51 -26 13 -27 13 -91 -14z"/>
<path d="M8088 1898 c-29 -10 -35 -27 -17 -45 21 -21 110 22 95 46 -9 13 -41
13 -78 -1z"/>
<path d="M7794 1836 c-166 -69 -244 -120 -244 -161 0 -24 36 -43 95 -50 73 -9
90 -17 107 -52 10 -21 24 -29 68 -38 30 -6 77 -24 103 -39 l49 -29 60 17 c33
9 62 15 65 13 2 -3 -4 -21 -13 -41 -34 -71 25 -73 73 -3 34 49 37 64 15 69
-11 3 -35 32 -54 64 -29 49 -43 63 -89 85 -61 30 -79 52 -109 133 -12 30 -27
56 -34 59 -7 3 -49 -9 -92 -27z m26 -110 c-16 -15 -80 -32 -80 -21 0 8 60 34
80 35 13 0 13 -2 0 -14z"/>
<path d="M11247 1693 c-14 -13 -6 -24 27 -40 39 -18 66 -12 66 16 0 25 -74 44
-93 24z"/>
<path d="M10815 1617 c-40 -42 -83 -94 -95 -116 -29 -57 -84 -90 -175 -106
-89 -16 -148 -47 -227 -122 -59 -57 -85 -101 -74 -129 5 -14 15 -15 59 -10 58
8 89 25 126 70 14 16 36 42 49 56 l23 25 -4 -45 c-5 -62 9 -110 32 -110 26 0
37 18 43 66 3 22 15 62 26 88 24 53 45 65 267 150 66 25 125 53 130 62 6 9 22
35 37 58 55 83 24 98 -86 44 -36 -18 -68 -29 -72 -26 -3 4 3 20 15 36 25 35
31 73 13 79 -7 3 -46 -29 -87 -70z"/>
<path d="M4106 1673 c-12 -12 -6 -32 20 -62 l26 -31 -26 -10 c-14 -5 -26 -14
-26 -19 0 -18 115 -84 349 -200 248 -123 377 -169 412 -150 29 15 54 58 41 71
-9 9 -297 130 -417 175 -22 8 -49 23 -60 33 -11 9 -54 37 -95 60 -41 23 -97
59 -125 79 -62 47 -90 62 -99 54z m314 -233 c0 -5 -9 -10 -19 -10 -11 0 -23 5
-26 10 -4 6 5 10 19 10 14 0 26 -4 26 -10z"/>
<path d="M10182 1314 c-32 -22 -73 -108 -75 -156 -2 -65 57 -90 68 -29 3 14
15 53 26 86 40 113 35 137 -19 99z"/>
</g>
</svg>
